<?xml version="1.0" standalone="no"?><!DOCTYPE svg PUBLIC "-//W3C//DTD SVG 1.1//EN" "http://www.w3.org/Graphics/SVG/1.1/DTD/svg11.dtd"><svg class="icon" width="200px" height="200.00px" viewBox="0 0 1024 1024" version="1.1" xmlns="http://www.w3.org/2000/svg"><path d="M817.71875 844.15625c106.3125-78.75 174-197.71875 174-330.75 0-237.09375-214.875-429.375-479.8125-429.375C246.875 84.03125 32 276.21875 32 513.3125c0 231.9375 205.6875 420.375 462.65625 428.53125 0.9375 0.375 1.875 0.65625 3 0.65625H510.125c0.5625 0 1.125 0.09375 1.6875 0.09375s1.125-0.09375 1.6875-0.09375h419.71875c9 0 12.5625-11.625 5.15625-16.6875l-120.65625-81.65625z" fill="#000000" /><path d="M376.90625 513.3125m-64.40625 0a64.40625 64.40625 0 1 0 128.8125 0 64.40625 64.40625 0 1 0-128.8125 0Z" fill="#FFFFFF" /><path d="M686.375 513.3125m-64.40625 0a64.40625 64.40625 0 1 0 128.8125 0 64.40625 64.40625 0 1 0-128.8125 0Z" fill="#FFFFFF" /></svg>