<svg xmlns="http://www.w3.org/2000/svg"  viewBox="0 0 80 80" width="80px" height="80px"><path fill="#f5ce85" d="M52,77.5c-6.233,0-11.5-2.73-11.5-5.961s5.267-5.961,11.5-5.961s11.5,2.73,11.5,5.961 S58.233,77.5,52,77.5z M28,77.5c-6.233,0-11.5-2.73-11.5-5.961s5.267-5.961,11.5-5.961s11.5,2.73,11.5,5.961S34.233,77.5,28,77.5z"/><path fill="#967a44" d="M52,66.077c5.203,0,11,2.243,11,5.462C63,74.757,57.203,77,52,77s-11-2.243-11-5.462 C41,68.32,46.797,66.077,52,66.077 M28,66.077c5.203,0,11,2.243,11,5.462C39,74.757,33.203,77,28,77c-5.203,0-11-2.243-11-5.462 C17,68.32,22.797,66.077,28,66.077 M52,65.077c-6.646,0-12,2.954-12,6.462S45.354,78,52,78s12-2.954,12-6.462 S58.646,65.077,52,65.077L52,65.077z M28,65.077c-6.646,0-12,2.954-12,6.462S21.354,78,28,78c6.646,0,12-2.954,12-6.462 S34.646,65.077,28,65.077L28,65.077z"/><path fill="#b0c1d4" d="M40,75.5c-10.778,0-20.363-7.363-24.419-18.757l-0.297-0.835l-0.561,0.686 c-0.428,0.523-0.868,1.103-1.305,1.679c-1.034,1.362-2.449,3.227-3.058,3.228c0.042-0.001-1.86-0.558-1.86-8.77 c0-5.358,4.278-12.238,6.829-15.862l0.054-0.076l0.022-0.09c0.083-0.331,0.315-0.65,0.539-0.958 c0.208-0.286,0.422-0.581,0.53-0.905l0.026-0.077V24.99C16.5,12.379,26.822,2.5,40,2.5s23.5,9.879,23.5,22.49v9.751l0.015,0.06 c0.129,0.52,0.433,0.936,0.7,1.303c0.17,0.234,0.332,0.456,0.391,0.634l0.025,0.074l0.046,0.063 c3.299,4.514,6.824,11.05,6.824,15.855c0,8.228-1.911,8.771-1.93,8.775c-0.539-0.005-1.955-1.871-2.988-3.233 c-0.437-0.576-0.877-1.156-1.305-1.679l-0.561-0.686l-0.297,0.835C60.363,68.137,50.778,75.5,40,75.5z"/><path fill="#66798f" d="M40,3c12.897,0,23,9.659,23,21.99v9.69v0.123l0.03,0.119c0.153,0.614,0.501,1.092,0.781,1.477 c0.127,0.175,0.286,0.393,0.321,0.497l0.049,0.148l0.092,0.126C67.525,41.62,71,48.045,71,52.73c0,6.159-1.082,7.807-1.465,8.196 c-0.61-0.392-1.81-1.975-2.555-2.956c-0.433-0.57-0.88-1.16-1.316-1.693l-1.122-1.371l-0.594,1.669C59.964,67.768,50.564,75,40,75 c-10.564,0-19.964-7.232-23.948-18.425l-0.594-1.669l-1.122,1.371c-0.436,0.533-0.884,1.123-1.316,1.693 c-0.745,0.981-1.945,2.564-2.555,2.956C10.082,60.537,9,58.889,9,52.73c0-3.813,2.456-9.49,6.738-15.575l0.107-0.152l0.045-0.181 c0.059-0.237,0.262-0.516,0.458-0.785c0.23-0.316,0.468-0.643,0.601-1.041L17,34.842V34.68v-9.69C17,12.659,27.103,3,40,3 M40,2 C26.51,2,16,12.26,16,24.99c0,1.71,0,9.69,0,9.69c-0.19,0.57-0.89,1.14-1.08,1.9C11.31,41.71,8,47.98,8,52.73 C8,61.85,10.36,62,10.36,62c1.14,0,3.04-3,4.75-5.09C19.1,68.12,28.6,76,40,76s20.9-7.88,24.89-19.09C66.6,59,68.5,62,69.64,62 c0,0,2.36-0.15,2.36-9.27c0-4.75-3.31-11.21-6.92-16.15c-0.19-0.57-0.89-1.14-1.08-1.9v-9.69C64,12.26,53.49,2,40,2L40,2z"/><path fill="#eceff1" d="M21.4,37.5c-1,3-1.4,2.7-1.4,6.1C20,58.2,29,70,40,70s20-11.8,20-26.4c0-3.4-0.6-3.1-1.4-6.1	c0,0-11.331,3.461-18.465,3.461S21.4,37.5,21.4,37.5z"/><path fill="#fff" d="M38,19c0,3.8-2.2,7-5,7s-5-3.2-5-7s2.2-7,5-7S38,15.2,38,19z M47,12c-2.8,0-5,3.2-5,7s2.2,7,5,7	s5-3.2,5-7S49.8,12,47,12z"/><path fill="#424e5c" d="M36,19c0,1.6-0.8,3-2,3s-2-1.4-2-3s0.8-3,2-3S36,17.4,36,19z M46,16c-1.2,0-2,1.4-2,3s0.8-1,2-1	s2,2.6,2,1S47.2,16,46,16z"/><path fill="#f5ce85" d="M40,37.1c-8.887,0-15.5-5.4-15.5-6.434c0-0.777,5.18-2.167,15.5-2.167s15.5,1.389,15.5,2.167 C55.5,31.7,48.887,37.1,40,37.1z"/><path fill="#967a44" d="M40,29c8.751,0,13.889,1.012,14.927,1.766C54.078,32.203,47.756,36.6,40,36.6 s-14.078-4.397-14.927-5.834C26.111,30.012,31.249,29,40,29 M40,28c-8.8,0-16,1.067-16,2.667c0,1.6,7.2,6.933,16,6.933 s16-5.333,16-6.933C56,29.067,48.8,28,40,28L40,28z"/><g><path fill="#f78f8f" d="M23.082,57.5c-1.828,0-2.492-0.242-2.583-1.603c0.001-0.332,0.016-8.742,1.274-14.009 c3.057,0.099,6.324,1.34,7.702,2.932c-0.458,3.349-0.803,9.21-0.803,10.636c0,1.743-1.045,1.87-3.408,1.992l-0.709,0.039 C24.528,57.487,23.082,57.5,23.082,57.5z"/><path fill="#c74343" d="M22.167,42.406c2.942,0.183,5.59,1.36,6.781,2.58c-0.444,3.403-0.776,9.067-0.776,10.47 c0,1.178-0.356,1.36-2.934,1.493c-0.223,0.012-0.451,0.023-0.683,0.038c-0.269,0-0.531,0.004-0.784,0.007 C23.533,56.997,23.303,57,23.082,57c-1.887,0-2.025-0.284-2.082-1.104C21.001,55.233,21.039,47.517,22.167,42.406 M21.383,41.381 C20,46.735,20,55.614,20,55.93c0.125,1.873,1.334,2.07,3.082,2.07c0.466,0,0.971-0.014,1.504-0.014c2.53-0.158,4.586,0,4.586-2.53 c0-1.423,0.354-7.463,0.828-10.784C28.579,42.839,24.881,41.381,21.383,41.381L21.383,41.381z"/></g><g><path fill="#f78f8f" d="M40.38,47.5c-15.148,0-26.182-7.408-26.278-7.482c-2.155-1.241-2.004-1.786-1.369-4.076l0.2-0.733 c0.498-1.867,1.105-2.774,1.857-2.774c0.371,0,0.826,0.195,1.355,0.58C16.265,33.096,27.162,40.5,40.19,40.5 s23.925-7.404,24.034-7.479c0.557-0.454,1.009-0.671,1.377-0.671c0.719,0,1.34,0.961,1.847,2.858 c0.065,0.355,0.139,0.713,0.206,1.042c0.455,2.213,0.563,2.739-1.115,3.718c0,0-0.069,0.038-0.174,0.099 C63.346,41.811,52.552,47.5,40.38,47.5z"/><path fill="#c74343" d="M65.601,32.851c0.336,0,0.867,0.645,1.354,2.452c0.072,0.38,0.143,0.728,0.209,1.049 c0.444,2.158,0.491,2.387-0.872,3.182c-0.04,0.022-0.1,0.056-0.178,0.101C63.123,41.362,52.428,47,40.38,47 c-14.477,0-25.299-6.93-25.946-7.36l-0.042-0.042l-0.116-0.066c-1.744-0.997-1.679-1.229-1.062-3.456 c0.064-0.232,0.132-0.477,0.202-0.738c0.407-1.527,0.908-2.403,1.374-2.403c0.148,0,0.482,0.063,1.082,0.499 C16.321,33.742,27.007,41,40.19,41s23.869-7.258,24.317-7.567l0.034-0.023l0.032-0.026C65.162,32.903,65.488,32.851,65.601,32.851 M65.601,31.851c-0.476,0-1.024,0.239-1.661,0.759c0,0-10.726,7.39-23.75,7.39s-23.75-7.39-23.75-7.39 c-0.631-0.459-1.176-0.675-1.649-0.675c-1.095,0-1.81,1.156-2.341,3.145c-0.76,2.85-1.33,3.8,1.33,5.32 c0.19,0.19,11.495,7.6,26.6,7.6c14.051,0,26.03-7.41,26.41-7.6c2.28-1.33,1.71-2.28,1.14-5.32 C67.401,33.098,66.689,31.851,65.601,31.851L65.601,31.851z"/></g></svg>